# Alias OBJ Model File
# Exported from SketchUp, (c) 2000-2012 Trimble Navigation Limited
# File units = meters

mtllib rocket.mtl

g Mesh1 Model

usemtl FrontColor
v 0.29 0 0.2
vt 2.5055 -13.4757
vn 0.109764 0.987878 0.109764
v -0.51 0.1 0.1
vt -16.9817 11.8867
v -0.51 0 1
vt -42.0367 -13.4757
f 1/1/1 2/2/1 3/3/1

v 0.274314 0.0215686 0.0215686
vt 7.03613 -8.00536
f 2/2/1 1/1/1 4/4/1

v 1.49 0 -0
vt 57.8633 -9.5743
vn 0.0197123 0.992785 0.118274
vt 10.5132 -2.4924
vt 9.9675 -9.5743
f 5/5/2 4/6/2 1/7/2

v 0.274314 0.107843 -0
vt 10.7971 4.06102
vn 0.0215103 0.24248 0.969918
vt 10.7783 0.559902
vt 58.647 -0.315378
f 6/8/3 4/9/3 5/10/3

vt 10.7164 3.79836
vn 0.120386 0.240772 0.963087
vt -20.412 3.48022
vt 10.611 0.298779
f 6/11/4 2/12/4 4/13/4

v -0.51 0.5 -0
vt -19.9237 19.7056
f 2/12/4 6/11/4 7/14/4

vt -10.7164 3.79836
vn 0.120386 0.240772 -0.963087
v -0.51 0.1 -0.1
vt 20.412 3.48022
vt 19.9237 19.7056
f 6/15/5 8/16/5 7/17/5

v 0.274314 0.0215686 -0.0215686
vt -10.611 0.298779
f 8/16/5 6/15/5 9/18/5

vt -10.7971 4.06102
vn 0.0215103 0.24248 -0.969918
vt -58.647 -0.315378
vt -10.7783 0.559902
f 6/19/6 5/20/6 9/21/6

vt -57.8633 -9.5743
vn 0.0197123 0.992785 -0.118274
v 0.29 0 -0.2
vt -9.9675 -9.5743
vt -10.5132 -2.4924
f 5/22/7 10/23/7 9/24/7

vt -57.8633 9.58327
vn 0.0184021 -0.993715 -0.110413
v 0.29 -0.02 -0.02
vt -11.1325 2.54887
vt -9.9675 9.58327
f 5/25/8 11/26/8 10/27/8

vt -58.6487 0.296281
vn 0.0202072 -0.242486 -0.969944
v 0.29 -0.1 -0
vt -11.4148 -3.76184
vt -11.3984 -0.515344
f 5/28/9 12/29/9 11/30/9

vt 58.6487 0.296281
vn 0.0202072 -0.242486 0.969944
v 0.29 -0.02 0.02
vt 11.3984 -0.515344
vt 11.4148 -3.76184
f 5/31/10 13/32/10 12/33/10

vt 57.8633 9.58327
vn 0.0184021 -0.993715 0.110413
vt 9.9675 9.58327
vt 11.1325 2.54887
f 5/34/11 1/35/11 13/36/11

vt -42.0367 13.4757
vn 0.109764 -0.987878 0.109764
vt 7.51649 8.4032
vt 2.5055 13.4757
f 3/37/12 13/38/12 1/39/12

v -0.51 -0.1 0.1
vt -16.9817 -11.8867
f 13/38/12 3/37/12 14/40/12

vt 3.93701 3.93701
vn -1 0 -0
vt 3.93701 -3.93701
vt 39.3701 0
f 2/41/13 14/42/13 3/43/13

vt 0 19.685
f 14/42/13 2/41/13 7/44/13

v -0.51 -0.5 -0
vt 0 -19.685
f 14/42/13 7/44/13 15/45/13

vt -3.93701 3.93701
f 15/45/13 7/44/13 8/46/13

v -0.51 -0.1 -0.1
vt -3.93701 -3.93701
f 15/45/13 8/46/13 16/47/13

v -0.51 0 -1
vt -39.3701 0
f 16/47/13 8/46/13 17/48/13

vt -7.03613 -8.00536
vn 0.109764 0.987878 -0.109764
vt 42.0367 -13.4757
vt 16.9817 11.8867
f 9/49/14 17/50/14 8/51/14

vt -2.5055 -13.4757
f 17/50/14 9/49/14 10/52/14

vt -2.5055 13.4757
vn 0.109764 -0.987878 -0.109764
vt 16.9817 -11.8867
vt 42.0367 13.4757
f 10/53/15 16/54/15 17/55/15

vt -7.51649 8.4032
f 16/54/15 10/53/15 11/56/15

vt -11.3292 -3.48022
vn 0.120386 -0.240772 -0.963087
vt 20.412 -3.48022
vt -11.2315 -0.23515
f 12/57/16 16/58/16 11/59/16

vt 19.9237 -19.7056
f 16/58/16 12/57/16 15/60/16

vt 11.3292 -3.48022
vn 0.120386 -0.240772 0.963087
vt -20.412 -3.48022
vt -19.9237 -19.7056
f 12/61/17 14/62/17 15/63/17

vt 11.2315 -0.23515
f 14/62/17 12/61/17 13/64/17

