# Alias OBJ Model File
# Exported from SketchUp, (c) 2000-2012 Trimble Navigation Limited
# File units = millimeters

mtllib ship.mtl

g Mesh1 Model

usemtl FrontColor
v 0 300 -0
vt 0 11.3187
vn 0.428571 -0.285714 0.857143
v -200 0 -0
vt -7.04273 -1.0061
v 0 0 -100
vt 1.76068 -1.0061
f 1/1/1 2/2/1 3/3/1

v -50 0 50
vt 1.24499 -0.513644
vn 0.309426 -0.206284 -0.928279
vt 7.46995 -0.513644
vt 0 11.557
f 4/4/2 2/5/2 1/6/2

vt 1.24499 1.33095
vn 0.267261 0.534522 -0.801784
v 0 -100 -0
vt 1.11022e-016 -3.32738
vt 7.46995 1.33095
f 4/7/3 5/8/3 2/9/3

vt 0 -3.21455
vn 0.57735 0.57735 -0.57735
vt 2.44249e-015 1.60728
v 0 -50 50
vt -1.39194 -0.803638
f 5/10/4 4/11/4 6/12/4

vt 0 -1.9685
vn 0 0 -1
vt 1.9685 0
v 0 50 50
vt 0 1.9685
v 50 0 50
vt -1.9685 0
f 6/13/5 4/14/5 7/15/5 8/16/5 

vt 1.54422 -0.445778
vn 0.19245 -0.19245 -0.96225
vt 5.55112e-017 11.5902
vt -0.386055 1.56022
f 4/17/6 1/18/6 7/19/6

vt 0 11.5902
vn -0.19245 -0.19245 -0.96225
vt -1.54422 -0.445778
vt 0.386055 1.56022
f 1/20/7 8/21/7 7/22/7

vt -1.24499 -0.513644
vn -0.309426 -0.206284 -0.928279
v 200 0 -0
vt -7.46995 -0.513644
f 8/23/8 1/6/8 9/24/8

vt -1.76068 -1.0061
vn -0.428571 -0.285714 0.857143
vt 7.04273 -1.0061
f 3/25/9 9/26/9 1/1/9

vt 0 -2.93447
vn -0.333333 0.666667 0.666667
vt 7.04273 2.34758
vt -1.76068 2.34758
f 5/27/10 9/28/10 3/29/10

vt -1.11022e-016 -3.32738
vn -0.267261 0.534522 -0.801784
vt -1.24499 1.33095
vt -7.46995 1.33095
f 5/30/11 8/31/11 9/32/11

vt -2.44249e-015 1.60728
vn -0.57735 0.57735 -0.57735
vt 1.39194 -0.803638
f 8/33/12 5/10/12 6/34/12

vn 0.333333 0.666667 0.666667
vt 1.76068 2.34758
vt -7.04273 2.34758
f 5/27/13 3/35/13 2/36/13

